<mxfile host="app.diagrams.net" modified="2023-05-10T09:24:05.618Z" agent="Mozilla/5.0 (Windows NT 10.0; Win64; x64) AppleWebKit/537.36 (KHTML, like Gecko) Chrome/113.0.0.0 Safari/537.36" etag="dGOzStekVEmXhMZuKqS0" version="21.2.9" type="google">
  <diagram id="C5RBs43oDa-KdzZeNtuy" name="Page-1">
    <mxGraphModel grid="1" page="1" gridSize="10" guides="1" tooltips="1" connect="1" arrows="1" fold="1" pageScale="1" pageWidth="827" pageHeight="1169" math="0" shadow="0">
      <root>
        <mxCell id="WIyWlLk6GJQsqaUBKTNV-0" />
        <mxCell id="WIyWlLk6GJQsqaUBKTNV-1" parent="WIyWlLk6GJQsqaUBKTNV-0" />
        <mxCell id="I6B_jcTm8_qFlOl3VQzl-46" style="edgeStyle=orthogonalEdgeStyle;rounded=0;orthogonalLoop=1;jettySize=auto;html=1;entryX=1;entryY=0.5;entryDx=0;entryDy=0;" edge="1" parent="WIyWlLk6GJQsqaUBKTNV-1">
          <mxGeometry relative="1" as="geometry">
            <mxPoint x="780" y="91" as="sourcePoint" />
          </mxGeometry>
        </mxCell>
        <mxCell id="1voPp9X9pCkuJewtQpr7-0" value="Usuario" style="swimlane;fontStyle=2;align=center;verticalAlign=top;childLayout=stackLayout;horizontal=1;startSize=26;horizontalStack=0;resizeParent=1;resizeLast=0;collapsible=1;marginBottom=0;rounded=0;shadow=0;strokeWidth=1;" vertex="1" parent="WIyWlLk6GJQsqaUBKTNV-1">
          <mxGeometry x="50" y="710" width="160" height="140" as="geometry">
            <mxRectangle x="230" y="140" width="160" height="26" as="alternateBounds" />
          </mxGeometry>
        </mxCell>
        <mxCell id="1voPp9X9pCkuJewtQpr7-3" value="Usuario" style="text;align=left;verticalAlign=top;spacingLeft=4;spacingRight=4;overflow=hidden;rotatable=0;points=[[0,0.5],[1,0.5]];portConstraint=eastwest;strokeColor=#0000FF;fillColor=#66B2FF;" vertex="1" parent="1voPp9X9pCkuJewtQpr7-0">
          <mxGeometry y="26" width="160" height="26" as="geometry" />
        </mxCell>
        <mxCell id="1voPp9X9pCkuJewtQpr7-4" value="Password" style="text;align=left;verticalAlign=top;spacingLeft=4;spacingRight=4;overflow=hidden;rotatable=0;points=[[0,0.5],[1,0.5]];portConstraint=eastwest;rounded=0;shadow=0;html=0;" vertex="1" parent="1voPp9X9pCkuJewtQpr7-0">
          <mxGeometry y="52" width="160" height="26" as="geometry" />
        </mxCell>
        <mxCell id="dVEOsDNGFBh9mlG7YrAl-2" value="Tipo" style="text;align=left;verticalAlign=top;spacingLeft=4;spacingRight=4;overflow=hidden;rotatable=0;points=[[0,0.5],[1,0.5]];portConstraint=eastwest;rounded=0;shadow=0;html=0;" vertex="1" parent="1voPp9X9pCkuJewtQpr7-0">
          <mxGeometry y="78" width="160" height="26" as="geometry" />
        </mxCell>
        <mxCell id="1voPp9X9pCkuJewtQpr7-13" value="Adulto" style="swimlane;fontStyle=0;align=center;verticalAlign=top;childLayout=stackLayout;horizontal=1;startSize=26;horizontalStack=0;resizeParent=1;resizeLast=0;collapsible=1;marginBottom=0;rounded=0;shadow=0;strokeWidth=1;" vertex="1" parent="WIyWlLk6GJQsqaUBKTNV-1">
          <mxGeometry x="460" y="650" width="160" height="360" as="geometry">
            <mxRectangle x="550" y="140" width="160" height="26" as="alternateBounds" />
          </mxGeometry>
        </mxCell>
        <mxCell id="Uu1_CgC3zNH5Ib-ImIgO-26" value="DNI_adulto" style="text;html=1;strokeColor=#82b366;fillColor=#d5e8d4;align=left;verticalAlign=middle;whiteSpace=wrap;rounded=0;" vertex="1" parent="1voPp9X9pCkuJewtQpr7-13">
          <mxGeometry y="26" width="160" height="30" as="geometry" />
        </mxCell>
        <mxCell id="1voPp9X9pCkuJewtQpr7-14" value="Nombre" style="text;align=left;verticalAlign=top;spacingLeft=4;spacingRight=4;overflow=hidden;rotatable=0;points=[[0,0.5],[1,0.5]];portConstraint=eastwest;" vertex="1" parent="1voPp9X9pCkuJewtQpr7-13">
          <mxGeometry y="56" width="160" height="26" as="geometry" />
        </mxCell>
        <mxCell id="1voPp9X9pCkuJewtQpr7-15" value="Apellidos" style="text;align=left;verticalAlign=top;spacingLeft=4;spacingRight=4;overflow=hidden;rotatable=0;points=[[0,0.5],[1,0.5]];portConstraint=eastwest;rounded=0;shadow=0;html=0;" vertex="1" parent="1voPp9X9pCkuJewtQpr7-13">
          <mxGeometry y="82" width="160" height="26" as="geometry" />
        </mxCell>
        <mxCell id="1voPp9X9pCkuJewtQpr7-17" value="F_Nacimiento" style="text;align=left;verticalAlign=top;spacingLeft=4;spacingRight=4;overflow=hidden;rotatable=0;points=[[0,0.5],[1,0.5]];portConstraint=eastwest;rounded=0;shadow=0;html=0;" vertex="1" parent="1voPp9X9pCkuJewtQpr7-13">
          <mxGeometry y="108" width="160" height="26" as="geometry" />
        </mxCell>
        <mxCell id="1voPp9X9pCkuJewtQpr7-20" value="Tlf" style="text;align=left;verticalAlign=top;spacingLeft=4;spacingRight=4;overflow=hidden;rotatable=0;points=[[0,0.5],[1,0.5]];portConstraint=eastwest;" vertex="1" parent="1voPp9X9pCkuJewtQpr7-13">
          <mxGeometry y="134" width="160" height="28" as="geometry" />
        </mxCell>
        <mxCell id="1voPp9X9pCkuJewtQpr7-21" value="Email" style="text;align=left;verticalAlign=top;spacingLeft=4;spacingRight=4;overflow=hidden;rotatable=0;points=[[0,0.5],[1,0.5]];portConstraint=eastwest;" vertex="1" parent="1voPp9X9pCkuJewtQpr7-13">
          <mxGeometry y="162" width="160" height="28" as="geometry" />
        </mxCell>
        <mxCell id="Uu1_CgC3zNH5Ib-ImIgO-3" value="Cons_cj" style="text;align=left;verticalAlign=top;spacingLeft=4;spacingRight=4;overflow=hidden;rotatable=0;points=[[0,0.5],[1,0.5]];portConstraint=eastwest;" vertex="1" parent="1voPp9X9pCkuJewtQpr7-13">
          <mxGeometry y="190" width="160" height="28" as="geometry" />
        </mxCell>
        <mxCell id="Uu1_CgC3zNH5Ib-ImIgO-6" value="Trat_img" style="text;align=left;verticalAlign=top;spacingLeft=4;spacingRight=4;overflow=hidden;rotatable=0;points=[[0,0.5],[1,0.5]];portConstraint=eastwest;" vertex="1" parent="1voPp9X9pCkuJewtQpr7-13">
          <mxGeometry y="218" width="160" height="28" as="geometry" />
        </mxCell>
        <mxCell id="dVEOsDNGFBh9mlG7YrAl-3" value="Seguro" style="text;align=left;verticalAlign=top;spacingLeft=4;spacingRight=4;overflow=hidden;rotatable=0;points=[[0,0.5],[1,0.5]];portConstraint=eastwest;rounded=0;shadow=0;html=0;" vertex="1" parent="1voPp9X9pCkuJewtQpr7-13">
          <mxGeometry y="246" width="160" height="26" as="geometry" />
        </mxCell>
        <mxCell id="Uu1_CgC3zNH5Ib-ImIgO-29" value="Hijos" style="text;align=left;verticalAlign=top;spacingLeft=4;spacingRight=4;overflow=hidden;rotatable=0;points=[[0,0.5],[1,0.5]];portConstraint=eastwest;" vertex="1" parent="1voPp9X9pCkuJewtQpr7-13">
          <mxGeometry y="272" width="160" height="28" as="geometry" />
        </mxCell>
        <mxCell id="Uu1_CgC3zNH5Ib-ImIgO-0" value="Usuario" style="text;align=left;verticalAlign=top;spacingLeft=4;spacingRight=4;overflow=hidden;rotatable=0;points=[[0,0.5],[1,0.5]];portConstraint=eastwest;strokeColor=#0000FF;fillColor=#66B2FF;" vertex="1" parent="1voPp9X9pCkuJewtQpr7-13">
          <mxGeometry y="300" width="160" height="26" as="geometry" />
        </mxCell>
        <mxCell id="bPIXksWT5RaXUjAwcNli-0" value="Seccion" style="text;align=left;verticalAlign=top;spacingLeft=4;spacingRight=4;overflow=hidden;rotatable=0;points=[[0,0.5],[1,0.5]];portConstraint=eastwest;" vertex="1" parent="1voPp9X9pCkuJewtQpr7-13">
          <mxGeometry y="326" width="160" height="28" as="geometry" />
        </mxCell>
        <mxCell id="1voPp9X9pCkuJewtQpr7-24" value="Menores" style="swimlane;fontStyle=0;align=center;verticalAlign=top;childLayout=stackLayout;horizontal=1;startSize=26;horizontalStack=0;resizeParent=1;resizeLast=0;collapsible=1;marginBottom=0;rounded=0;shadow=0;strokeWidth=1;" vertex="1" parent="WIyWlLk6GJQsqaUBKTNV-1">
          <mxGeometry x="460" y="1040" width="160" height="324" as="geometry">
            <mxRectangle x="550" y="140" width="160" height="26" as="alternateBounds" />
          </mxGeometry>
        </mxCell>
        <mxCell id="1voPp9X9pCkuJewtQpr7-27" value="DNI_menor" style="text;align=left;verticalAlign=top;spacingLeft=4;spacingRight=4;overflow=hidden;rotatable=0;points=[[0,0.5],[1,0.5]];portConstraint=eastwest;rounded=0;shadow=0;html=0;fillColor=#FF3399;strokeColor=#99004D;" vertex="1" parent="1voPp9X9pCkuJewtQpr7-24">
          <mxGeometry y="26" width="160" height="26" as="geometry" />
        </mxCell>
        <mxCell id="1voPp9X9pCkuJewtQpr7-25" value="Nombre" style="text;align=left;verticalAlign=top;spacingLeft=4;spacingRight=4;overflow=hidden;rotatable=0;points=[[0,0.5],[1,0.5]];portConstraint=eastwest;" vertex="1" parent="1voPp9X9pCkuJewtQpr7-24">
          <mxGeometry y="52" width="160" height="26" as="geometry" />
        </mxCell>
        <mxCell id="1voPp9X9pCkuJewtQpr7-26" value="Apellidos" style="text;align=left;verticalAlign=top;spacingLeft=4;spacingRight=4;overflow=hidden;rotatable=0;points=[[0,0.5],[1,0.5]];portConstraint=eastwest;rounded=0;shadow=0;html=0;" vertex="1" parent="1voPp9X9pCkuJewtQpr7-24">
          <mxGeometry y="78" width="160" height="26" as="geometry" />
        </mxCell>
        <mxCell id="1voPp9X9pCkuJewtQpr7-28" value="F_Nacimiento" style="text;align=left;verticalAlign=top;spacingLeft=4;spacingRight=4;overflow=hidden;rotatable=0;points=[[0,0.5],[1,0.5]];portConstraint=eastwest;rounded=0;shadow=0;html=0;" vertex="1" parent="1voPp9X9pCkuJewtQpr7-24">
          <mxGeometry y="104" width="160" height="26" as="geometry" />
        </mxCell>
        <mxCell id="1voPp9X9pCkuJewtQpr7-31" value="Tlf_menor" style="text;align=left;verticalAlign=top;spacingLeft=4;spacingRight=4;overflow=hidden;rotatable=0;points=[[0,0.5],[1,0.5]];portConstraint=eastwest;" vertex="1" parent="1voPp9X9pCkuJewtQpr7-24">
          <mxGeometry y="130" width="160" height="28" as="geometry" />
        </mxCell>
        <mxCell id="1voPp9X9pCkuJewtQpr7-32" value="Email" style="text;align=left;verticalAlign=top;spacingLeft=4;spacingRight=4;overflow=hidden;rotatable=0;points=[[0,0.5],[1,0.5]];portConstraint=eastwest;" vertex="1" parent="1voPp9X9pCkuJewtQpr7-24">
          <mxGeometry y="158" width="160" height="28" as="geometry" />
        </mxCell>
        <mxCell id="1voPp9X9pCkuJewtQpr7-29" value="Seguro" style="text;align=left;verticalAlign=top;spacingLeft=4;spacingRight=4;overflow=hidden;rotatable=0;points=[[0,0.5],[1,0.5]];portConstraint=eastwest;rounded=0;shadow=0;html=0;" vertex="1" parent="1voPp9X9pCkuJewtQpr7-24">
          <mxGeometry y="186" width="160" height="26" as="geometry" />
        </mxCell>
        <mxCell id="1voPp9X9pCkuJewtQpr7-30" value="Colegio" style="text;align=left;verticalAlign=top;spacingLeft=4;spacingRight=4;overflow=hidden;rotatable=0;points=[[0,0.5],[1,0.5]];portConstraint=eastwest;" vertex="1" parent="1voPp9X9pCkuJewtQpr7-24">
          <mxGeometry y="212" width="160" height="26" as="geometry" />
        </mxCell>
        <mxCell id="1voPp9X9pCkuJewtQpr7-33" value="Adulto" style="text;align=left;verticalAlign=top;spacingLeft=4;spacingRight=4;overflow=hidden;rotatable=0;points=[[0,0.5],[1,0.5]];portConstraint=eastwest;fillColor=#d5e8d4;strokeColor=#82b366;" vertex="1" parent="1voPp9X9pCkuJewtQpr7-24">
          <mxGeometry y="238" width="160" height="28" as="geometry" />
        </mxCell>
        <mxCell id="Uu1_CgC3zNH5Ib-ImIgO-5" value="Sección" style="text;align=left;verticalAlign=top;spacingLeft=4;spacingRight=4;overflow=hidden;rotatable=0;points=[[0,0.5],[1,0.5]];portConstraint=eastwest;" vertex="1" parent="1voPp9X9pCkuJewtQpr7-24">
          <mxGeometry y="266" width="160" height="28" as="geometry" />
        </mxCell>
        <mxCell id="Uu1_CgC3zNH5Ib-ImIgO-4" style="edgeStyle=orthogonalEdgeStyle;rounded=0;orthogonalLoop=1;jettySize=auto;html=1;exitX=0.5;exitY=1;exitDx=0;exitDy=0;entryX=0.5;entryY=1;entryDx=0;entryDy=0;" edge="1" parent="1voPp9X9pCkuJewtQpr7-24" source="1voPp9X9pCkuJewtQpr7-24">
          <mxGeometry relative="1" as="geometry">
            <mxPoint x="80" y="324" as="targetPoint" />
          </mxGeometry>
        </mxCell>
        <mxCell id="Uu1_CgC3zNH5Ib-ImIgO-7" value="Reservas" style="swimlane;fontStyle=0;align=center;verticalAlign=top;childLayout=stackLayout;horizontal=1;startSize=26;horizontalStack=0;resizeParent=1;resizeLast=0;collapsible=1;marginBottom=0;rounded=0;shadow=0;strokeWidth=1;" vertex="1" parent="WIyWlLk6GJQsqaUBKTNV-1">
          <mxGeometry x="210" y="1030" width="150" height="180" as="geometry">
            <mxRectangle x="550" y="140" width="160" height="26" as="alternateBounds" />
          </mxGeometry>
        </mxCell>
        <mxCell id="Uu1_CgC3zNH5Ib-ImIgO-8" value="Cod_form" style="text;align=left;verticalAlign=top;spacingLeft=4;spacingRight=4;overflow=hidden;rotatable=0;points=[[0,0.5],[1,0.5]];portConstraint=eastwest;fillColor=#FF6666;strokeColor=#FF0000;shadow=0;" vertex="1" parent="Uu1_CgC3zNH5Ib-ImIgO-7">
          <mxGeometry y="26" width="150" height="26" as="geometry" />
        </mxCell>
        <mxCell id="dVEOsDNGFBh9mlG7YrAl-0" value="DNI_participante" style="text;align=left;verticalAlign=top;spacingLeft=4;spacingRight=4;overflow=hidden;rotatable=0;points=[[0,0.5],[1,0.5]];portConstraint=eastwest;strokeColor=#994C00;fillColor=#FFCC99;" vertex="1" parent="Uu1_CgC3zNH5Ib-ImIgO-7">
          <mxGeometry y="52" width="150" height="28" as="geometry" />
        </mxCell>
        <mxCell id="Uu1_CgC3zNH5Ib-ImIgO-11" value="Pagado" style="text;align=left;verticalAlign=top;spacingLeft=4;spacingRight=4;overflow=hidden;rotatable=0;points=[[0,0.5],[1,0.5]];portConstraint=eastwest;" vertex="1" parent="Uu1_CgC3zNH5Ib-ImIgO-7">
          <mxGeometry y="80" width="150" height="28" as="geometry" />
        </mxCell>
        <mxCell id="Uu1_CgC3zNH5Ib-ImIgO-12" value="Observaciones" style="text;align=left;verticalAlign=top;spacingLeft=4;spacingRight=4;overflow=hidden;rotatable=0;points=[[0,0.5],[1,0.5]];portConstraint=eastwest;" vertex="1" parent="Uu1_CgC3zNH5Ib-ImIgO-7">
          <mxGeometry y="108" width="150" height="28" as="geometry" />
        </mxCell>
        <mxCell id="Uu1_CgC3zNH5Ib-ImIgO-14" value="" style="endArrow=classic;html=1;rounded=0;exitX=0.006;exitY=0.231;exitDx=0;exitDy=0;exitPerimeter=0;entryX=0.987;entryY=0.821;entryDx=0;entryDy=0;entryPerimeter=0;" edge="1" parent="WIyWlLk6GJQsqaUBKTNV-1" source="1voPp9X9pCkuJewtQpr7-27" target="dVEOsDNGFBh9mlG7YrAl-0">
          <mxGeometry width="50" height="50" relative="1" as="geometry">
            <mxPoint x="300" y="980" as="sourcePoint" />
            <mxPoint x="360" y="1095" as="targetPoint" />
            <Array as="points">
              <mxPoint x="440" y="1072" />
              <mxPoint x="440" y="1105" />
              <mxPoint x="390" y="1105" />
            </Array>
          </mxGeometry>
        </mxCell>
        <mxCell id="Uu1_CgC3zNH5Ib-ImIgO-15" value="" style="endArrow=classic;html=1;rounded=0;exitX=1;exitY=0.25;exitDx=0;exitDy=0;entryX=0;entryY=0.5;entryDx=0;entryDy=0;" edge="1" parent="WIyWlLk6GJQsqaUBKTNV-1" source="1voPp9X9pCkuJewtQpr7-0" target="Uu1_CgC3zNH5Ib-ImIgO-0">
          <mxGeometry width="50" height="50" relative="1" as="geometry">
            <mxPoint x="300" y="980" as="sourcePoint" />
            <mxPoint x="450" y="970" as="targetPoint" />
            <Array as="points">
              <mxPoint x="320" y="745" />
              <mxPoint x="320" y="963" />
            </Array>
          </mxGeometry>
        </mxCell>
        <mxCell id="Uu1_CgC3zNH5Ib-ImIgO-16" value="Formularios" style="swimlane;fontStyle=0;align=center;verticalAlign=top;childLayout=stackLayout;horizontal=1;startSize=26;horizontalStack=0;resizeParent=1;resizeLast=0;collapsible=1;marginBottom=0;rounded=0;shadow=0;strokeWidth=1;" vertex="1" parent="WIyWlLk6GJQsqaUBKTNV-1">
          <mxGeometry x="-50" y="1030" width="160" height="182" as="geometry">
            <mxRectangle x="550" y="140" width="160" height="26" as="alternateBounds" />
          </mxGeometry>
        </mxCell>
        <mxCell id="Uu1_CgC3zNH5Ib-ImIgO-24" value="Cod_form" style="text;align=left;verticalAlign=top;spacingLeft=4;spacingRight=4;overflow=hidden;rotatable=0;points=[[0,0.5],[1,0.5]];portConstraint=eastwest;fillColor=#FF6666;strokeColor=#FF0000;shadow=0;" vertex="1" parent="Uu1_CgC3zNH5Ib-ImIgO-16">
          <mxGeometry y="26" width="160" height="26" as="geometry" />
        </mxCell>
        <mxCell id="Uu1_CgC3zNH5Ib-ImIgO-18" value="Nombre" style="text;align=left;verticalAlign=top;spacingLeft=4;spacingRight=4;overflow=hidden;rotatable=0;points=[[0,0.5],[1,0.5]];portConstraint=eastwest;" vertex="1" parent="Uu1_CgC3zNH5Ib-ImIgO-16">
          <mxGeometry y="52" width="160" height="26" as="geometry" />
        </mxCell>
        <mxCell id="Uu1_CgC3zNH5Ib-ImIgO-19" value="Plazas" style="text;align=left;verticalAlign=top;spacingLeft=4;spacingRight=4;overflow=hidden;rotatable=0;points=[[0,0.5],[1,0.5]];portConstraint=eastwest;rounded=0;shadow=0;html=0;" vertex="1" parent="Uu1_CgC3zNH5Ib-ImIgO-16">
          <mxGeometry y="78" width="160" height="26" as="geometry" />
        </mxCell>
        <mxCell id="Uu1_CgC3zNH5Ib-ImIgO-20" value="Plazas_ocupadas" style="text;align=left;verticalAlign=top;spacingLeft=4;spacingRight=4;overflow=hidden;rotatable=0;points=[[0,0.5],[1,0.5]];portConstraint=eastwest;rounded=0;shadow=0;html=0;" vertex="1" parent="Uu1_CgC3zNH5Ib-ImIgO-16">
          <mxGeometry y="104" width="160" height="26" as="geometry" />
        </mxCell>
        <mxCell id="Uu1_CgC3zNH5Ib-ImIgO-21" value="Fecha_hora" style="text;align=left;verticalAlign=top;spacingLeft=4;spacingRight=4;overflow=hidden;rotatable=0;points=[[0,0.5],[1,0.5]];portConstraint=eastwest;" vertex="1" parent="Uu1_CgC3zNH5Ib-ImIgO-16">
          <mxGeometry y="130" width="160" height="26" as="geometry" />
        </mxCell>
        <mxCell id="Uu1_CgC3zNH5Ib-ImIgO-22" value="Coste" style="text;align=left;verticalAlign=top;spacingLeft=4;spacingRight=4;overflow=hidden;rotatable=0;points=[[0,0.5],[1,0.5]];portConstraint=eastwest;" vertex="1" parent="Uu1_CgC3zNH5Ib-ImIgO-16">
          <mxGeometry y="156" width="160" height="26" as="geometry" />
        </mxCell>
        <mxCell id="Uu1_CgC3zNH5Ib-ImIgO-25" value="" style="endArrow=classic;html=1;rounded=0;exitX=1;exitY=0.5;exitDx=0;exitDy=0;entryX=0;entryY=0.5;entryDx=0;entryDy=0;" edge="1" parent="WIyWlLk6GJQsqaUBKTNV-1" source="Uu1_CgC3zNH5Ib-ImIgO-24" target="Uu1_CgC3zNH5Ib-ImIgO-8">
          <mxGeometry width="50" height="50" relative="1" as="geometry">
            <mxPoint x="300" y="1100" as="sourcePoint" />
            <mxPoint x="350" y="1050" as="targetPoint" />
          </mxGeometry>
        </mxCell>
        <mxCell id="Uu1_CgC3zNH5Ib-ImIgO-27" value="" style="endArrow=classic;html=1;rounded=0;exitX=1;exitY=0.5;exitDx=0;exitDy=0;entryX=1;entryY=0.5;entryDx=0;entryDy=0;" edge="1" parent="WIyWlLk6GJQsqaUBKTNV-1" source="Uu1_CgC3zNH5Ib-ImIgO-26" target="1voPp9X9pCkuJewtQpr7-33">
          <mxGeometry width="50" height="50" relative="1" as="geometry">
            <mxPoint x="300" y="940" as="sourcePoint" />
            <mxPoint x="350" y="890" as="targetPoint" />
            <Array as="points">
              <mxPoint x="640" y="690" />
              <mxPoint x="640" y="1030" />
              <mxPoint x="640" y="1292" />
            </Array>
          </mxGeometry>
        </mxCell>
        <mxCell id="Uu1_CgC3zNH5Ib-ImIgO-28" value="" style="endArrow=classic;html=1;rounded=0;exitX=0;exitY=0.5;exitDx=0;exitDy=0;" edge="1" parent="WIyWlLk6GJQsqaUBKTNV-1" source="Uu1_CgC3zNH5Ib-ImIgO-26">
          <mxGeometry width="50" height="50" relative="1" as="geometry">
            <mxPoint x="300" y="980" as="sourcePoint" />
            <mxPoint x="360" y="1090" as="targetPoint" />
            <Array as="points">
              <mxPoint x="430" y="691" />
              <mxPoint x="430" y="1090" />
              <mxPoint x="390" y="1090" />
            </Array>
          </mxGeometry>
        </mxCell>
      </root>
    </mxGraphModel>
  </diagram>
</mxfile>
